PathFileType	4	(X/Y/Z)	C:/Users/beibeiliu/ov580/test_trc\sequence.13_training_dense_right.trc
DataRate	CameraRate	NumFrames	NumMarkers	Units	OrigDataRate	OrigDataStartFrame	OrigNumFrames
120	120	14	19	mm	120	27	79
Frame#	Time	ThumbCMC			ThumbMCP			ThumbIP			ThumbTip			IndexMCP			IndexPIP			IndexTip			MiddleMCP			MiddlePIP			MiddleTip			RingMCP			RingPIP			RingTip			PinkyMCP			PinkyPIP			PinkyTip			BackHand1			BackHand2			BackHand3	
		X0	Y0	Z0	X1	Y1	Z1	X2	Y2	Z2	X3	Y3	Z3	X4	Y4	Z4	X5	Y5	Z5	X6	Y6	Z6	X7	Y7	Z7	X8	Y8	Z8	X9	Y9	Z9	X10	Y10	Z10	X11	Y11	Z11	X12	Y12	Z12	X13	Y13	Z13	X14	Y14	Z14	X15	Y15	Z15	X16	Y16	Z16	X17	Y17	Z17	X18	Y18	Z18	
26	0.216667	95.4828	85.1393	26.7927	74.8723	108.797	27.8879	50.7476	115.317	27.7899	26.5045	101.562	32.7725	60.6993	92.3906	-22.6249	44.278	101.306	-35.7494	31.9009	117.461	-50.8776	40.2093	80.4493	-18.6304	18.4659	93.5283	-29.9389	0.514692	103.528	-39.2744	26.2526	74.141	-5.772	9.91805	87.0874	-12.0494	-7.33395	95.6736	-17.1201	20.0951	69.6672	23.3232	24.2728	92.016	32.1745	43.9808	96.3632	43.9048	62.9709	47.0877	14.7745	79.7698	34.3796	30.9643	91.6422	54.1154	11.9784	
27	0.225	101.007	84.8285	29.3018	82.4849	114.763	30.4549	53.7379	123.026	27.6293	31.8096	115.925	34.9691	61.5143	97.7255	-23.29	52.4489	111.258	-36.3513	41.7254	128.418	-51.5457	41.0101	91.0929	-18.7026	23.884	105.382	-29.9593	9.28093	124.382	-42.6875	27.2844	81.8972	-1.41561	14.732	101.06	-11.0327	-2.59583	113.803	-15.6848	20.9111	82.1428	22.4038	22.9407	102.565	36.3256	51.0949	105.162	43.5076	56.0462	52.8063	14.99	76.7062	36.5414	31.6185	84.7433	57.4274	10.908	
28	0.233333	98.2782	86.0831	28.4546	82.0216	116.874	28.7495	61.1108	125.777	29.0944	34.7407	122.097	34.3007	66.4759	104.004	-26.1485	58.6573	117.266	-37.4182	47.5204	136.414	-52.9688	42.8658	98.0135	-20.4579	31.825	113.519	-31.1755	15.5431	131.639	-43.8795	27.4639	92.4803	-4.47634	15.0644	107.562	-11.2678	4.49447	122.948	-16.8973	22.5521	90.7343	21.5884	28.3685	111.453	33.7261	49.1981	110.858	46.307	56.5343	56.504	14.9351	70.4217	39.5327	32.3098	84.7198	61.2333	9.84645	
29	0.241667	98.9427	86.09	28.4096	84.6887	117.829	29.6616	59.84	131.244	27.5894	34.493	120.147	32.1642	62.6188	106.125	-26.5901	57.0264	118.299	-38.321	48.2013	133.151	-52.4061	40.5914	99.7112	-21.94	27.9564	116.1	-32.6212	16.3023	134.827	-47.0555	27.8931	92.5648	-3.29934	14.9766	111.284	-13.1208	4.61934	127.071	-20.2503	23.7072	91.7395	20.6552	29.5805	113.543	34.6091	49.8677	112.135	46.2905	54.9522	59.5869	13.5916	69.2449	41.2775	30.8831	87.2109	62.3511	11.8539	
30	0.25	99.4686	90.8155	21.5434	81.4381	119.761	20.9412	58.4408	126.859	21.5408	35.8254	118.771	27.1344	64.4377	101.032	-30.2159	49.2248	110.655	-43.4991	41.3145	119.661	-58.4936	39.103	92.8169	-23.5166	23.4329	105.986	-37.1158	7.3692	118.24	-49.6908	25.965	86.6337	-7.1057	13.716	102.061	-16.7083	-4.06495	116.298	-22.532	24.9801	88.1542	17.7069	30.4599	109.539	27.3133	50.6747	109.948	38.2373	57.8029	56.8498	14.345	74.6002	44.9838	28.9701	88.5744	61.6823	9.15281	
31	0.258333	100.223	85.6609	13.0903	75.7404	111.195	4.02638	53.2294	114.599	3.49328	29.1687	105.058	13.511	60.6706	75.8276	-35.3874	47.1912	81.6723	-54.9045	34.298	83.2207	-70.899	37.7332	66.8592	-30.1056	20.8693	72.4279	-43.2108	3.11181	79.0639	-62.3101	27.3334	66.6587	-12.6706	9.97123	75.7297	-22.641	-1.90154	85.2621	-32.8797	24.3409	72.0144	14.1408	26.921	95.5428	16.3802	51.0335	100.358	23.3869	63.7678	48.0553	13.1974	84.989	39.7301	30.6116	89.6014	53.204	8.29198	
32	0.266667	106.205	78.9357	5.45558	76.6286	95.3311	-13.9497	51.4968	94.4181	-18.9003	30.1686	83.4232	-5.8506	71.5617	46.5883	-39.384	59.3094	43.7227	-63.2362	49.1503	39.8317	-76.7712	51.4507	37.2289	-30.5234	34.4751	34.0604	-50.7442	14.3409	28.5531	-64.5899	37.9976	38.2922	-14.995	21.2731	40.4033	-30.5713	2.24281	44.3071	-43.0136	31.3913	49.6196	5.61566	24.8446	74.4503	3.57289	51.3519	83.1426	8.56056	71.7056	33.6851	17.7747	87.2121	36.484	36.6016	95.7341	42.5687	7.57516	
33	0.275	107.464	73.7294	4.14496	84.3522	84.1684	-20.026	60.7079	77.356	-29.3457	35.8664	61.9697	-23.6202	93.1373	27.0353	-41.9386	85.6016	17.7097	-58.1489	76.2164	6.68399	-73.8694	70.6364	15.0786	-26.932	61.0409	2.98658	-48.3306	48.8898	-7.64077	-65.2045	54.2064	14.3565	-18.0536	41.497	9.42614	-33.9387	26.8516	8.4208	-47.3837	41.443	28.1416	-1.91756	31.5292	48.008	-11.7129	50.2106	69.6054	-3.63006	84.7997	25.5897	19.6312	95.8961	35.3881	37.2755	110.294	42.4435	12.8592	
34	0.283333	106.759	75.0315	6.18662	85.7225	78.3262	-22.6437	69.8861	66.6904	-30.6494	47.8228	47.1401	-34.2002	113.04	26.4639	-33.9993	117.55	15.3157	-57.1418	116.042	4.42335	-70.5658	101.862	9.53002	-30.9084	97.7122	-4.5955	-46.381	91.488	-22.4422	-66.7386	83.0085	6.41182	-19.0847	74.1424	-3.81514	-35.533	65.0311	-10.8205	-58.6777	61.7019	13.7561	-7.01697	47.5629	27.8745	-20.3657	55.0906	52.1654	-16.8982	94.8811	26.5158	22.8038	101.675	40.0328	42.8575	117.112	45.932	16.4387	
35	0.291667	103.1	84.102	13.6201	86.109	79.3612	-21.2763	74.7777	65.5093	-35.7483	65.3819	41.7137	-35.7302	136.643	45.8276	-32.5354	139.777	35.1454	-48.2139	149.659	28.9446	-65.8998	128.507	20.9514	-28.1397	133.551	8.34287	-45.1735	137.524	-8.19909	-62.0308	108.599	11.001	-17.626	110.927	1.32773	-42.1416	105.716	-9.79267	-61.7776	85.7018	10.725	-14.4394	72.507	18.8221	-27.541	65.5692	44.5112	-22.8276	112.03	33.5358	22.0737	106.878	45.1328	46.8488	122.15	56.0246	23.6654	
36	0.3	97.3012	90.0032	13.7146	82.9488	85.3959	-16.1012	81.5838	64.9995	-37.7062	78.6002	42.1357	-40.2712	142.623	68.4174	-26.4218	153.492	68.5136	-44.3359	163.704	61.9115	-60.1534	145.119	49.1339	-26.5913	154.989	39.1333	-42.3382	171.57	30.7166	-61.854	129.791	30.1979	-19.6206	136.481	21.3908	-44.0068	138.87	15.2307	-64.1531	106.198	18.7718	-14.4711	87.0149	26.4373	-34.1474	77.1173	44.2562	-31.3349	119.078	45.2839	21.1804	113.548	51.9929	42.4475	121.015	71.6381	28.9048	
37	0.308333	84.0263	92.141	20.2811	74.3693	88.954	-15.3725	82.705	71.5594	-38.7671	90.788	48.6331	-42.2038	134.706	98.0612	-21.886	147.399	101.384	-38.9294	159.404	110.369	-56.2575	147.749	78.8014	-23.5397	162.083	76.5611	-40.6674	179.754	76.8872	-58.9275	141.538	56.4923	-20.4696	151.335	55.0673	-45.5133	156.323	54.9978	-63.0694	122.157	35.6334	-21.5032	102.277	39.2018	-37.7804	83.5705	53.3854	-30.3178	125.597	59.6726	22.392	117.609	58.1156	42.5784	117.713	84.9721	26.7608	
38	0.316667	71.6381	89.0209	20.8153	65.5956	84.9309	-15.1973	79.8958	75.7702	-38.6995	95.0321	59.048	-44.4894	115.406	121.179	-23.6389	122.013	132.376	-39.5502	130.77	142.344	-56.7956	134.905	104.966	-23.1767	144.729	115.873	-40.1674	160.786	127.086	-58.2462	138.348	87.4129	-26.674	146.91	88.8267	-43.5521	151.554	94.9566	-64.271	130.472	59.6438	-23.7915	114.826	52.6794	-40.4877	90.9048	56.6455	-33.0294	122.589	76.7707	18.8224	115.499	72.828	39.6224	106.758	95.8758	28.2457	
39	0.325	59.5376	81.8148	16.4984	61.4074	77.0611	-20.5329	77.7497	73.5524	-38.6071	96.2674	64.2293	-45.6735	84.3531	124.086	-25.2126	86.1785	137.883	-43.2288	88.991	151.461	-61.3667	109.226	124.089	-30.9788	118.07	134.945	-49.2034	127.787	148.344	-66.4381	125.906	104.9	-32.9507	128.75	111.913	-51.3789	132.333	118.265	-71.6462	125.774	79.9338	-30.1508	112.773	63.8236	-45.0861	91.4283	57.2859	-31.4115	117.324	91.1021	13.1892	112.076	81.4138	37.2314	90.5106	102.734	23.6173	
